<svg xmlns="http://www.w3.org/2000/svg" width="30" height="30">
    <defs>
        <linearGradient id="a" x1="76.604%" x2="0%" y1="0%" y2="64.279%">
            <stop offset="0%" stop-color="#4845A2"/>
            <stop offset="5%" stop-color="#5945A2"/>
            <stop offset="17%" stop-color="#8444A1"/>
            <stop offset="27%" stop-color="#9E44A1"/>
            <stop offset="27%" stop-color="#9E44A1"/>
            <stop offset="33%" stop-color="#A844A1"/>
            <stop offset="39%" stop-color="#AB429A"/>
            <stop offset="48%" stop-color="#B43C88"/>
            <stop offset="56%" stop-color="#BE3572"/>
            <stop offset="68%" stop-color="#D22749"/>
            <stop offset="74%" stop-color="#DF4F3E"/>
            <stop offset="86%" stop-color="#F9A326"/>
            <stop offset="100%" stop-color="#F9DD26"/>
        </linearGradient>
    </defs>
    <path fill="url(#a)" fill-rule="evenodd" d="M2 0h26a2 2 0 0 1 2 2v26a2 2 0 0 1-2 2H2a2 2 0 0 1-2-2V2a2 2 0 0 1 2-2z"/>
    <path fill="#FFF" fill-rule="evenodd" d="M24.468 18.927c-.046 1.014-.207 1.707-.443 2.313a4.866 4.866 0 0 1-2.785 2.785c-.606.236-1.299.397-2.313.443-1.015.047-1.34.058-3.927.058-2.587 0-2.911-.011-3.927-.058-1.014-.046-1.707-.207-2.312-.443a4.674 4.674 0 0 1-1.688-1.098 4.679 4.679 0 0 1-1.098-1.687c-.236-.606-.397-1.299-.443-2.313-.047-1.015-.058-1.34-.058-3.927 0-2.587.011-2.911.058-3.927.046-1.014.207-1.707.442-2.313a4.681 4.681 0 0 1 1.099-1.687A4.679 4.679 0 0 1 8.76 5.975c.606-.236 1.299-.397 2.313-.443 1.016-.047 1.34-.058 3.927-.058 2.587 0 2.911.011 3.927.058 1.014.046 1.707.207 2.313.442.635.24 1.211.615 1.687 1.099a4.679 4.679 0 0 1 1.098 1.687c.236.606.397 1.299.443 2.313.047 1.016.058 1.34.058 3.927 0 2.587-.011 2.911-.058 3.927zm-1.714-7.776c-.043-.929-.198-1.433-.328-1.769a2.943 2.943 0 0 0-.713-1.095 2.943 2.943 0 0 0-1.095-.713c-.336-.13-.84-.285-1.769-.328-1.004-.046-1.306-.055-3.849-.055s-2.845.009-3.849.055c-.929.043-1.433.198-1.769.328a2.943 2.943 0 0 0-1.095.713c-.317.307-.56.681-.713 1.095-.13.336-.285.84-.328 1.769-.046 1.004-.055 1.306-.055 3.849 0 2.544.009 2.845.055 3.849.043.929.198 1.434.328 1.769.153.414.396.788.713 1.095.307.317.681.56 1.095.713.336.13.84.286 1.769.328 1.004.046 1.305.055 3.849.055 2.544 0 2.845-.009 3.849-.055.929-.042 1.433-.198 1.769-.328a3.154 3.154 0 0 0 1.808-1.808c.13-.335.285-.84.328-1.769.046-1.004.055-1.305.055-3.849 0-2.543-.01-2.845-.055-3.849zm-2.669-.093a1.142 1.142 0 1 1-.002-2.284 1.142 1.142 0 0 1 .002 2.284zM15 19.892a4.892 4.892 0 1 1 0-9.783 4.892 4.892 0 0 1 0 9.783zm0-8.067a3.174 3.174 0 1 0-.001 6.349A3.174 3.174 0 0 0 15 11.825z"/>
</svg>
