<svg xmlns="http://www.w3.org/2000/svg" width="30" height="30">
    <path fill="#007FB5" fill-rule="evenodd" d="M2 0h26a2 2 0 0 1 2 2v26a2 2 0 0 1-2 2H2a2 2 0 0 1-2-2V2a2 2 0 0 1 2-2z"/>
    <path fill="#FFF" fill-rule="evenodd" d="M22.991 16.321v6.683h-3.157v-6.237c.01-.534-.18-1.05-.528-1.435a1.631 1.631 0 0 0-1.224-.525c-.41.02-.793.219-1.059.551a2.89 2.89 0 0 0-.693 1.953v5.693h-2.796V12.212h2.796v1.372c.64-.792 2.138-2.21 4.206-1.372 2.806 1.114 2.455 4.109 2.455 4.109zm-13.234-5.6c-.968 0-1.752-.833-1.752-1.861 0-1.027.784-1.86 1.752-1.86.967 0 1.752.833 1.752 1.86 0 1.028-.785 1.861-1.752 1.861zm1.404 12.283H8.356V12.212h2.805v10.792z"/>
</svg>
