<svg xmlns="http://www.w3.org/2000/svg" width="30" height="30">
    <path fill="#1DA1F2" fill-rule="evenodd" d="M2 0h26a2 2 0 0 1 2 2v26a2 2 0 0 1-2 2H2a2 2 0 0 1-2-2V2a2 2 0 0 1 2-2z"/>
    <path fill="#FFF" fill-rule="evenodd" d="M24.401 9.068a9.05 9.05 0 0 1-2.218.628 3.805 3.805 0 0 0 1.685-2.151 7.652 7.652 0 0 1-2.454.956 3.888 3.888 0 0 0-2.809-1.224c-2.129 0-3.843 1.732-3.843 3.882 0 .299.029.597.088.896-3.193-.179-6.032-1.732-7.953-4.092a3.998 3.998 0 0 0-.533 1.972c0 1.344.68 2.538 1.715 3.255a4.208 4.208 0 0 1-1.744-.478 3.896 3.896 0 0 0 3.104 3.823 3.7 3.7 0 0 1-1.005.149c-.236 0-.503-.03-.739-.059.503 1.553 1.922 2.687 3.607 2.717a7.715 7.715 0 0 1-4.79 1.673c-.325 0-.621-.03-.916-.06 1.715 1.105 3.725 1.762 5.913 1.762 7.096 0 10.97-5.943 10.97-11.08v-.508c.739-.597 1.419-1.284 1.922-2.061"/>
</svg>
